# xmcd
#
# Track frame offsets:
#  150
#  47395
#  65973
#  101447
#  123146
#  152047
#  171150
#  187127
#  207863
#  228103
#  252461
#  276437
#  293168
#  302673
#  313348
#  325860
#
# Disc length: 4544 seconds
#
# Revision: 0
# Processed by: cddbd v1.5.1PL2 Copyright (c) Steve Scherf et al.
# Submitted via: Collectorz.com_Music_Collector 6.11
#
DISCID=eb11be10
DTITLE=Vaughan Williams - Symphonies 7, 8 and 9 and Job - A Masque for Dancing [CD2)
DYEAR=1900
DGENRE=Classical
TTITLE0=Symphony No 8: 1 Fantasia
TTITLE1=Symphony No 8: II Scherzo alla marcia
TTITLE2=Symphony No 8: III Cavatina
TTITLE3=Symphony No 8: IV Toccata
TTITLE4=Job -  Introduction
TTITLE5=Job -  Saraband of the Sons of God
TTITLE6=Job - Scene 2 Satans Dance of Triumph
TTITLE7=Job - Scene III Minuet of the Sons of Job and Their Wives
TTITLE8=Job - Scene IV Job's Dream
TTITLE9=Job -  Scene V Dance of the Three Messengers
TTITLE10=Job - Dance of Job's Comforters
TTITLE11=Job - Elihu's Dance of Youth and Beauty
TTITLE12=Job - Pavane of the Sons of the Morning
TTITLE13=Job - Gailliard of the Sons of the Morning
TTITLE14=Job - Altar Dance
TTITLE15=Job - Scene IX Epilogue
EXTD=
EXTT0=
EXTT1=
EXTT2=
EXTT3=
EXTT4=
EXTT5=
EXTT6=
EXTT7=
EXTT8=
EXTT9=
EXTT10=
EXTT11=
EXTT12=
EXTT13=
EXTT14=
EXTT15=
PLAYORDER=
